<svg width="67" height="73" viewBox="0 0 67 73" fill="none" xmlns="http://www.w3.org/2000/svg">
<path d="M3.77134 54.0768L6.47656 55.6133L36.6138 4.26377L33.9086 2.72725L3.77134 54.0768Z" fill="#E535AB"/>
<path d="M63.4308 49.9688H3.15625V53.0418H63.4308V49.9688Z" fill="#E535AB"/>
<path d="M4.34352 51.7005L34.4922 68.8242L36.0541 66.163L5.90545 49.0393L4.34352 51.7005Z" fill="#E535AB"/>
<path d="M30.5352 7.07123L60.6836 24.1953L62.2455 21.534L32.097 4.40996L30.5352 7.07123Z" fill="#E535AB"/>
<path d="M4.35998 21.5184L5.92188 24.1797L36.0703 7.0556L34.5084 4.39433L4.35998 21.5184Z" fill="#E535AB"/>
<path d="M29.9916 4.26378L60.1289 55.6133L62.8341 54.0768L32.6969 2.72726L29.9916 4.26378Z" fill="#E535AB"/>
<path d="M8.66678 19.4844H5.54297V53.7322H8.66678V19.4844Z" fill="#E535AB"/>
<path d="M61.0613 19.4844H57.9375V53.7322H61.0613V19.4844Z" fill="#E535AB"/>
<path d="M32.5966 65.1949L33.9609 67.5195L60.182 52.6264L58.8177 50.3018L32.5966 65.1949Z" fill="#E535AB"/>
<path d="M65.1994 54.7321C63.3929 57.8237 59.3658 58.8789 56.2232 57.1017C53.0805 55.3245 52.0079 51.3629 53.8144 48.2713C55.621 45.1798 59.6481 44.1246 62.7907 45.9017C65.9521 47.6974 67.0248 51.6406 65.1994 54.7321Z" fill="#E535AB"/>
<path d="M12.7697 24.9431C10.9632 28.0346 6.9361 29.0899 3.79347 27.3127C0.650843 25.5355 -0.421791 21.5738 1.38475 18.4823C3.19129 15.3907 7.21837 14.3355 10.361 16.1127C13.5036 17.9084 14.5763 21.8515 12.7697 24.9431Z" fill="#E535AB"/>
<path d="M1.40428 54.7321C-0.402259 51.6406 0.670374 47.6974 3.813 45.9017C6.95563 44.1246 10.9639 45.1798 12.7893 48.2713C14.5958 51.3629 13.5232 55.306 10.3805 57.1017C7.21908 58.8789 3.21082 57.8237 1.40428 54.7321Z" fill="#E535AB"/>
<path d="M53.8301 24.9431C52.0235 21.8515 53.0962 17.9084 56.2388 16.1127C59.3814 14.3355 63.3897 15.3907 65.215 18.4823C67.0216 21.5738 65.9489 25.517 62.8063 27.3127C59.6637 29.0899 55.6366 28.0346 53.8301 24.9431Z" fill="#E535AB"/>
<path d="M33.3019 72.8513C29.67 72.8513 26.7344 69.9634 26.7344 66.3905C26.7344 62.8176 29.67 59.9297 33.3019 59.9297C36.9338 59.9297 39.8695 62.8176 39.8695 66.3905C39.8695 69.9449 36.9338 72.8513 33.3019 72.8513Z" fill="#E535AB"/>
<path d="M33.3019 13.281C29.67 13.281 26.7344 10.3931 26.7344 6.82018C26.7344 3.2473 29.67 0.359375 33.3019 0.359375C36.9338 0.359375 39.8695 3.2473 39.8695 6.82018C39.8695 10.3931 36.9338 13.281 33.3019 13.281Z" fill="#E535AB"/>
</svg>
