<svg width="67" height="89" viewBox="0 0 67 89" fill="none" xmlns="http://www.w3.org/2000/svg">
<path d="M21.2921 68.1758C21.2921 68.1758 17.8676 70.1349 23.7292 70.7978C30.8303 71.5947 34.4596 71.4805 42.285 70.0234C42.285 70.0234 44.3424 71.2925 47.2157 72.3917C29.6731 79.788 7.51327 71.9633 21.2921 68.1758Z" fill="#5382A1"/>
<path d="M19.1512 58.5234C19.1512 58.5234 15.3103 61.3203 21.1762 61.9172C28.7618 62.6871 34.7524 62.75 45.1183 60.7864C45.1183 60.7864 46.552 62.2164 48.8065 62.9983C27.5964 69.0997 3.97218 63.4795 19.1512 58.5234Z" fill="#5382A1"/>
<path d="M37.2225 42.1542C41.545 47.0499 36.0868 51.4554 36.0868 51.4554C36.0868 51.4554 47.0623 45.8815 42.0218 38.9018C37.314 32.3927 33.7038 29.1586 53.248 18.0078C53.248 18.0078 22.57 25.5453 37.2225 42.1542Z" fill="#E76F00"/>
<path d="M60.4225 75.3159C60.4225 75.3159 62.9567 77.3701 57.6316 78.9592C47.5057 81.9768 15.4867 82.8881 6.59198 79.0794C3.39455 77.711 9.39064 75.8121 11.2768 75.4136C13.2438 74.994 14.3679 75.0721 14.3679 75.0721C10.8121 72.6079 -8.61575 79.9108 4.49957 82.0023C40.2669 87.7084 69.7001 79.4327 60.4225 75.3159Z" fill="#5382A1"/>
<path d="M22.9386 48.5222C22.9386 48.5222 6.65175 52.3277 17.1711 53.7097C21.6126 54.2946 30.4668 54.1623 38.7142 53.4825C45.4545 52.9232 52.2225 51.7339 52.2225 51.7339C52.2225 51.7339 49.8458 52.7352 48.1263 53.8902C31.5873 58.1693 -0.363138 56.1787 8.83497 51.8016C16.6138 48.1025 22.9386 48.5222 22.9386 48.5222Z" fill="#5382A1"/>
<path d="M52.1582 64.5893C68.9709 55.9947 61.1974 47.7354 55.7716 48.8481C54.4417 49.1204 53.8487 49.3564 53.8487 49.3564C53.8487 49.3564 54.3424 48.5956 55.2854 48.2662C66.0194 44.5538 74.2746 59.2155 51.8203 65.0224C51.8203 65.0227 52.0804 64.7939 52.1582 64.5893Z" fill="#5382A1"/>
<path d="M42.0194 0C42.0194 0 51.3306 9.16293 33.1882 23.2529C18.6399 34.5555 29.8707 41 33.1822 48.363C24.6901 40.8256 18.458 34.1903 22.639 28.0149C28.7756 18.9498 45.7763 14.5548 42.0194 0Z" fill="#E76F00"/>
<path d="M24.5911 87.8806C40.7292 88.8968 65.5111 87.3167 66.098 79.8047C66.098 79.8047 64.9698 82.6524 52.7607 84.914C38.9865 87.464 21.998 87.1663 11.9219 85.532C11.9221 85.5318 13.9846 87.2114 24.5911 87.8806Z" fill="#5382A1"/>
</svg>
