<svg width="135" height="81" viewBox="0 0 135 81" fill="none" xmlns="http://www.w3.org/2000/svg">
<path d="M66.9006 80.6033C66.4598 80.6033 66.0221 80.4902 65.6357 80.2725L61.6093 77.9403C61.008 77.6113 61.3014 77.4949 61.4997 77.4279C62.3016 77.1532 62.4643 77.0912 63.3201 76.6157C63.4101 76.5655 63.5278 76.5832 63.6199 76.6363L66.7131 78.4321C66.8248 78.4912 66.9833 78.4912 67.0868 78.4321L79.1474 71.6212C79.2591 71.5591 79.3316 71.4321 79.3316 71.3022V57.6862C79.3316 57.5503 79.2591 57.4292 79.145 57.3613L67.0893 50.5562C66.9776 50.4913 66.8296 50.4913 66.7179 50.5562L54.6646 57.3613C54.5478 57.4263 54.4735 57.5533 54.4735 57.6832V71.2992C54.4735 71.4292 54.546 71.5532 54.6607 71.6153L57.9634 73.4819C59.7566 74.3591 60.8525 73.3254 60.8525 72.2857V58.8469C60.8525 58.655 61.0064 58.5073 61.2027 58.5073H62.7302C62.9204 58.5073 63.0774 58.655 63.0774 58.8469V72.2916C63.0774 74.6309 61.7733 75.9747 59.506 75.9747C58.8087 75.9747 58.2592 75.9747 56.7256 75.2363L53.5618 73.4524C52.7799 73.0093 52.2969 72.1823 52.2969 71.2992V57.6832C52.2969 56.7972 52.7799 55.9701 53.5618 55.533L65.6344 48.7191C66.3982 48.2968 67.4126 48.2968 68.1703 48.7191L80.2279 55.536C81.0068 55.9761 81.4928 56.8001 81.4928 57.6862V71.3022C81.4928 72.1853 81.0068 73.0093 80.2279 73.4524L68.1703 80.2663C67.7839 80.4849 67.3462 80.5971 66.8994 80.5971" fill="#68A220"/>
<path d="M70.6257 71.2206C65.3486 71.2206 64.2422 68.8507 64.2422 66.8629C64.2422 66.6739 64.398 66.5233 64.5915 66.5233H66.1492C66.3213 66.5233 66.4662 66.6458 66.4934 66.8121C66.7289 68.3651 67.4293 69.1484 70.6202 69.1484C73.1622 69.1484 74.2429 68.5866 74.2429 67.2679C74.2429 66.5088 73.935 65.9447 69.9863 65.5666C66.6836 65.2476 64.6428 64.5358 64.6428 61.9514C64.6428 59.5708 66.6957 58.1531 70.1342 58.1531C73.9954 58.1531 75.9094 59.4645 76.1509 62.2822C76.16 62.3797 76.1237 62.4742 76.0573 62.5451C75.9909 62.613 75.8973 62.6544 75.8007 62.6544H74.2339C74.0709 62.6544 73.929 62.5421 73.8958 62.3885C73.5184 60.7552 72.6067 60.2324 70.1282 60.2324C67.3538 60.2324 67.0308 61.1776 67.0308 61.8864C67.0308 62.7459 67.4111 62.997 71.1546 63.4814C74.8618 63.9628 76.6218 64.6421 76.6218 67.1911C76.6218 69.7607 74.4301 71.2345 70.6082 71.2345L70.6257 71.2206ZM85.2982 56.7945H85.7027C86.0348 56.7945 86.0982 56.567 86.0982 56.4341C86.0982 56.0856 85.8537 56.0856 85.7178 56.0856H85.3012L85.2982 56.7945ZM84.8061 55.678H85.7027C86.0107 55.678 86.6145 55.678 86.6145 56.3514C86.6145 56.821 86.3065 56.9185 86.1224 56.9776C86.4816 57.0012 86.5058 57.2316 86.5541 57.5565C86.5782 57.7603 86.6175 58.1118 86.6899 58.2299H86.1375C86.1224 58.1118 86.0378 57.462 86.0378 57.4265C86.0016 57.2818 85.9503 57.2109 85.7661 57.2109H85.3103V58.2328H84.8061V55.678ZM83.7284 56.948C83.7284 58.0054 84.6008 58.862 85.6726 58.862C86.7533 58.862 87.6258 57.9877 87.6258 56.948C87.6258 55.8877 86.7412 55.0459 85.6695 55.0459C84.6129 55.0459 83.7253 55.8759 83.7253 56.9451L83.7284 56.948ZM88.0001 56.9539C88.0001 58.2063 86.9526 59.2282 85.6756 59.2282C84.4076 59.2282 83.351 58.2181 83.351 56.9539C83.351 55.6662 84.4318 54.6797 85.6756 54.6797C86.9284 54.6797 87.9971 55.6691 87.9971 56.9539" fill="#68A220"/>
<path fill-rule="evenodd" clip-rule="evenodd" d="M29.551 27.3267C29.551 26.7832 29.2582 26.284 28.7788 26.0138L15.9918 18.8159C15.776 18.6919 15.5342 18.6269 15.289 18.618H15.1568C14.9117 18.6269 14.6699 18.6919 14.4504 18.8159L1.66407 26.0138C1.18769 26.2855 0.890625 26.7847 0.890625 27.3281L0.918701 46.7154C0.918701 46.9842 1.06059 47.2353 1.3021 47.3682C1.53758 47.51 1.83343 47.51 2.06891 47.3682L9.67053 43.1091C10.1505 42.8297 10.4434 42.3359 10.4434 41.7977V32.7406C10.4434 32.2001 10.7362 31.7009 11.2147 31.4321L14.451 29.6086C14.6913 29.4727 14.9551 29.4054 15.2238 29.4054C15.4883 29.4054 15.7582 29.4721 15.9918 29.6083L19.2266 31.4312C19.7054 31.7 19.9995 32.1992 19.9995 32.7397V41.7962C19.9995 42.3338 20.2962 42.83 20.7738 43.1076L28.3706 47.3638C28.6091 47.5026 28.9059 47.5026 29.1434 47.3638C29.3777 47.2308 29.5262 46.9798 29.5262 46.711L29.551 27.3267ZM89.8894 37.4208C89.8894 37.5558 89.8161 37.6807 89.6962 37.7475L85.3043 40.2244C85.1851 40.2914 85.0377 40.2914 84.9188 40.2244L80.5263 37.7475C80.4055 37.6804 80.3331 37.5555 80.3331 37.4208V32.46C80.3331 32.3247 80.4055 32.2001 80.5233 32.1321L84.9128 29.6511C85.0335 29.5832 85.1814 29.5832 85.3022 29.6511L89.6947 32.1321C89.8155 32.2001 89.8879 32.3247 89.8879 32.46L89.8894 37.4208ZM91.0759 0.677663C90.8362 0.547115 90.5445 0.550659 90.3079 0.685638C90.0724 0.821503 89.9269 1.0696 89.9269 1.33838V20.5367C89.9269 20.7257 89.8242 20.9 89.657 20.9945C89.4909 21.089 89.2841 21.089 89.1166 20.9945L85.9135 19.1895C85.4365 18.9196 84.8491 18.9196 84.3703 19.1895L71.5791 26.4119C71.1012 26.6807 70.8063 27.1799 70.8063 27.7174V42.1663C70.8063 42.7068 71.1012 43.203 71.5791 43.4748L84.3703 50.7022C84.8479 50.971 85.4359 50.971 85.915 50.7022L98.7062 43.4718C99.1832 43.2001 99.479 42.7039 99.479 42.1634V6.15331C99.479 5.60512 99.1741 5.10095 98.685 4.83306L91.0759 0.677663ZM133.671 32.3294C134.146 32.0595 134.438 31.5609 134.438 31.0234V27.5216C134.438 26.9829 134.146 26.4858 133.669 26.2146L120.96 18.9961C120.48 18.7243 119.891 18.7243 119.411 18.9961L106.623 26.2176C106.143 26.4893 105.85 26.9855 105.85 27.526V41.969C105.85 42.5125 106.149 43.0146 106.629 43.2834L119.336 50.369C119.804 50.6319 120.377 50.6348 120.851 50.3779L128.537 46.1986C128.779 46.0657 128.933 45.8146 128.933 45.5429C128.933 45.2711 128.785 45.0171 128.543 44.8842L115.677 37.6598C115.435 37.5268 115.287 37.2758 115.287 37.007V32.4762C115.287 32.2057 115.432 31.9564 115.674 31.8217L119.677 29.5622C119.915 29.4264 120.208 29.4264 120.447 29.5622L124.453 31.8217C124.691 31.9546 124.839 32.2057 124.839 32.4744V36.0365C124.839 36.3052 124.987 36.5563 125.226 36.6922C125.464 36.8251 125.76 36.8251 125.998 36.6892L133.671 32.3294Z" fill="#404137"/>
<path fill-rule="evenodd" clip-rule="evenodd" d="M119.998 31.6525C120.089 31.6002 120.202 31.6002 120.294 31.6525L122.749 33.0377C122.84 33.0897 122.896 33.1854 122.896 33.2888V36.0622C122.896 36.1656 122.84 36.2613 122.749 36.3132L120.294 37.6985C120.202 37.7508 120.089 37.7508 119.998 37.6985L117.545 36.3132C117.452 36.2613 117.395 36.1656 117.395 36.0622V33.2888C117.395 33.1854 117.449 33.0897 117.542 33.0377L119.998 31.6525Z" fill="#68A220"/>
<path fill-rule="evenodd" clip-rule="evenodd" d="M50.1531 19.1758C50.6301 18.8997 51.2281 18.8997 51.7115 19.1758L64.6399 26.4909C65.1234 26.7655 65.4191 27.2708 65.4191 27.8167V42.4626C65.4191 43.0085 65.1234 43.5138 64.6399 43.7883L51.7115 51.1035C51.2281 51.3795 50.6301 51.3795 50.1531 51.1035L37.2326 43.7883C36.7396 43.5138 36.4375 43.0085 36.4375 42.4626V27.8167C36.4375 27.2708 36.7238 26.7655 37.2167 26.4909L50.1531 19.1758Z" fill="#68A220"/>
</svg>
