<svg width="103" height="52" viewBox="0 0 103 52" fill="none" xmlns="http://www.w3.org/2000/svg">
<path d="M51.4767 51.3281C79.9062 51.3281 102.953 39.8382 102.953 25.6647C102.953 11.4914 79.9062 0.00131403 51.4767 0.00131403C23.0473 0.00131403 0 11.4914 0 25.6647C0 39.8382 23.0473 51.3281 51.4767 51.3281Z" fill="url(#paint0_linear_198_11198)"/>
<path d="M32.2927 27.553L32.2926 27.5531C31.0596 28.4866 29.1825 28.9146 26.8038 28.9146H23.767H23.1586L23.2765 28.3177L25.3476 17.8343L25.4272 17.4312H25.8381H29.5739C30.6754 17.4312 31.6159 17.5241 32.379 17.7191C33.1374 17.913 33.7632 18.2186 34.1841 18.6773L34.1843 18.6775C34.6016 19.1327 34.8249 19.7487 34.9019 20.4643C34.9789 21.1796 34.9137 22.027 34.7236 22.9906L34.7236 22.9908C34.3157 25.0536 33.5209 26.6227 32.2927 27.553ZM14.5198 40.7987L14.5203 40.7993C14.5342 40.8159 14.5576 40.8281 14.585 40.8281H20.7369C20.7818 40.8281 20.811 40.7977 20.8168 40.7684L20.8168 40.7684L22.1847 33.8452L22.2644 33.4421H22.6752H27.4652C29.8118 33.4421 31.7472 33.1928 33.2315 32.7171L33.2318 32.717C34.7343 32.2368 36.1223 31.4195 37.3537 30.2858L37.3537 30.2858L37.3571 30.2827C38.3912 29.3477 39.2372 28.3034 39.8754 27.1797C40.5128 26.0576 40.9735 24.7999 41.242 23.4397L41.2421 23.4396C41.9066 20.0775 41.3658 17.5028 39.7538 15.6876L39.7538 15.6875C38.1438 13.8743 35.5399 12.9036 31.9034 12.9036H20.0739C20.0287 12.9036 19.9995 12.9344 19.9938 12.9632L14.5051 40.7442L14.5051 40.7443C14.5015 40.7623 14.5059 40.7822 14.5198 40.7987Z" fill="black" stroke="white"/>
<path d="M55.7755 33.4117L55.7763 33.4126C55.7902 33.4293 55.8135 33.4414 55.841 33.4414H62.0412C62.0863 33.4414 62.1155 33.4109 62.1213 33.3817L64.675 20.4539C64.675 20.4539 64.675 20.4539 64.675 20.4539C65.2164 17.7113 64.7497 15.8295 63.4841 14.6852C62.2047 13.5295 59.9234 12.9029 56.3465 12.9029H51.6147H51.0062L51.1241 12.306L52.4487 5.60088C52.4522 5.5827 52.4479 5.56287 52.4339 5.546C52.4195 5.52901 52.396 5.51692 52.3686 5.51692H46.2653C46.2202 5.51692 46.1909 5.54767 46.1852 5.57648L40.6965 33.3575L40.6965 33.3576C40.6929 33.3756 40.6974 33.3955 40.7112 33.412L40.7114 33.4123C40.7257 33.4293 40.7491 33.4414 40.7766 33.4414H46.8799C46.9249 33.4414 46.9542 33.4108 46.96 33.3817L50.0126 17.9289L50.0922 17.5258H50.5031H54.9017C56.7533 17.5258 57.5497 17.8899 57.9017 18.2628L57.902 18.263C58.1872 18.5656 58.299 19.0048 58.3291 19.448C58.3602 19.9068 58.3094 20.4554 58.1889 21.0654C58.1889 21.0655 58.1889 21.0655 58.1889 21.0655L55.761 33.3575L55.2704 33.2606L55.761 33.3575C55.7573 33.3757 55.7618 33.3953 55.7755 33.4117Z" fill="black" stroke="white"/>
<path d="M80.3082 27.5531L80.3082 27.5531C79.0752 28.4866 77.1981 28.9146 74.8194 28.9146H71.7826H71.1742L71.2921 28.3177L73.3632 17.8343L73.4428 17.4312H73.8537H77.5895C78.691 17.4312 79.6315 17.5241 80.3946 17.7191C81.153 17.913 81.7788 18.2186 82.1997 18.6773L82.1999 18.6775C82.6172 19.1326 82.8406 19.7487 82.9177 20.4643C82.9947 21.1796 82.9295 22.027 82.7394 22.9906L82.7394 22.9909C82.3313 25.0538 81.5365 26.6229 80.3082 27.5531ZM62.5356 40.7987L62.5361 40.7993C62.55 40.8159 62.5734 40.8281 62.6008 40.8281H68.7525C68.7975 40.8281 68.8269 40.7977 68.8328 40.7683C68.8328 40.7682 68.8329 40.7682 68.8329 40.7681L70.2001 33.8453L70.2797 33.4421H70.6906H75.4808C77.8274 33.4421 79.7628 33.1928 81.2471 32.7171L81.2474 32.717C82.7499 32.2368 84.1379 31.4195 85.3693 30.2858L85.3693 30.2858L85.3727 30.2827C86.4068 29.3477 87.2528 28.3034 87.891 27.1797C88.5283 26.0576 88.9889 24.7999 89.2579 23.4396C89.9222 20.0772 89.3815 17.5026 87.7696 15.6876L87.7696 15.6876C86.1594 13.8743 83.5557 12.9036 79.919 12.9036H68.0897C68.0446 12.9036 68.0153 12.9341 68.0094 12.9634C68.0093 12.9634 68.0093 12.9635 68.0093 12.9635L62.5207 40.7442L62.5207 40.7443C62.5172 40.7619 62.5215 40.7819 62.5356 40.7987Z" fill="black" stroke="white"/>
<defs>
<linearGradient id="paint0_linear_198_11198" x1="103.203" y1="26.0898" x2="0.203123" y2="26.0898" gradientUnits="userSpaceOnUse">
<stop stop-color="#787CB4"/>
<stop offset="1" stop-color="#7377AD"/>
</linearGradient>
</defs>
</svg>
