<svg width="77" height="79" viewBox="0 0 77 79" fill="none" xmlns="http://www.w3.org/2000/svg">
<path d="M57.58 57.5105C58.083 53.3229 57.9318 52.7118 61.0486 53.3877L61.8417 53.4586C64.2395 53.5667 67.3748 53.0729 69.248 52.2181C73.2134 50.3789 75.5649 47.3053 71.655 48.1138C62.7366 49.953 62.0886 46.9319 62.0886 46.9319C71.51 32.9526 75.4507 15.2085 72.0469 10.8665C62.7767 -0.98346 46.7268 4.6206 46.4583 4.76873L46.3719 4.78416C44.6129 4.41384 42.6688 4.19783 40.416 4.16697C36.3796 4.10525 33.3184 5.22545 30.9916 6.98752C30.9916 6.98752 2.36335 -4.80693 3.69339 21.8216C3.97729 27.4874 11.8094 64.7161 21.1598 53.4525C24.5821 49.3358 27.8841 45.858 27.8841 45.858C29.5196 46.9473 31.4853 47.5028 33.5437 47.3022L33.7041 47.1664C33.6566 47.6998 33.6784 48.2371 33.7689 48.7649C31.3619 51.4559 32.0717 51.928 27.2576 52.9186C22.388 53.9215 25.2517 55.7083 27.1157 56.1774C29.3807 56.7452 34.6207 57.5475 38.1633 52.5915L38.0214 53.1562C38.9657 53.9123 38.9008 58.5875 39.0397 61.9265C39.1786 65.2654 39.3977 68.3853 40.0797 70.2215C40.7617 72.0576 41.5609 76.7945 47.8871 75.4676C53.1733 74.335 57.2159 72.7026 57.5862 57.5383" fill="black"/>
<path d="M57.58 57.5105C58.083 53.3229 57.9318 52.7118 61.0486 53.3877L61.8417 53.4586C64.2395 53.5667 67.3748 53.0729 69.248 52.2181C73.2134 50.3789 75.5649 47.3053 71.655 48.1138C62.7366 49.953 62.0886 46.9319 62.0886 46.9319C71.51 32.9526 75.4507 15.2085 72.0469 10.8665C62.7767 -0.98346 46.7268 4.6206 46.4583 4.76873L46.3719 4.78416C44.6129 4.41384 42.6688 4.19783 40.416 4.16697C36.3796 4.10525 33.3184 5.22545 30.9916 6.98752C30.9916 6.98752 2.36335 -4.80693 3.69339 21.8216C3.97729 27.4874 11.8094 64.7161 21.1598 53.4525C24.5821 49.3358 27.8841 45.858 27.8841 45.858C29.5196 46.9473 31.4853 47.5028 33.5437 47.3022L33.7041 47.1664C33.6566 47.6998 33.6784 48.2371 33.7689 48.7649C31.3619 51.4559 32.0717 51.928 27.2576 52.9186C22.388 53.9215 25.2517 55.7083 27.1157 56.1774C29.3807 56.7452 34.6207 57.5475 38.1633 52.5915L38.0214 53.1562C38.9657 53.9123 38.9008 58.5875 39.0397 61.9265C39.1786 65.2654 39.3977 68.3853 40.0797 70.2215C40.7617 72.0576 41.5609 76.7945 47.8871 75.4676C53.1733 74.335 57.2159 72.7026 57.5862 57.5383" stroke="black" stroke-width="5.3725"/>
<path d="M71.6295 48.14C62.7111 49.9792 62.0631 46.958 62.0631 46.958C71.4844 32.9788 75.4252 15.2346 72.0245 10.8927C62.7543 -0.957297 46.7044 4.64985 46.4359 4.79489L46.3495 4.81032C44.3891 4.41697 42.3961 4.2093 40.3967 4.19005C36.3603 4.12833 33.2991 5.24852 30.9723 7.01059C30.9723 7.01059 2.34093 -4.78386 3.67406 21.8447C3.95796 27.5105 11.7901 64.7392 21.1405 53.4756C24.5844 49.3342 27.8863 45.8564 27.8863 45.8564C29.5219 46.9457 31.4876 47.5012 33.5459 47.3006L33.7064 47.1648C33.6593 47.6982 33.681 48.2355 33.7712 48.7633C31.3642 51.4543 32.0739 51.9264 27.2599 52.917C22.3903 53.9199 25.254 55.7067 27.1179 56.1757C29.383 56.7436 34.6229 57.5459 38.1656 52.5899L38.0236 53.1546C38.9679 53.9107 39.6283 58.0705 39.5172 61.8415C39.4061 65.6125 39.3321 68.1986 40.0727 70.2229C40.8133 72.2473 41.5539 76.796 47.8801 75.469C53.1663 74.3365 55.9035 71.3956 56.2893 66.5013C56.5609 63.0204 57.1719 63.5326 57.2151 60.422L57.7088 58.9469C58.2736 54.2254 57.8014 52.7041 61.0571 53.4138L61.8501 53.4848C64.2479 53.5928 67.3863 53.0991 69.2255 52.2443C73.191 50.405 75.5394 47.3314 71.6295 48.14Z" fill="#336791"/>
<path d="M38.5447 50.8154C38.2979 59.5979 38.6065 68.4422 39.4643 70.5654C40.3222 72.6885 42.1645 76.8915 48.4938 75.5399C53.78 74.4074 55.7056 72.2133 56.5388 67.3714L58.4922 51.8893M30.9595 6.78829C30.9595 6.78829 2.30965 -4.92592 3.64278 21.7026C3.92668 27.3684 11.7588 64.5972 21.1092 53.3335C24.5222 49.2199 27.6082 46.0013 27.6082 46.0013M46.4324 4.64974C45.4449 4.95833 62.3682 -1.53757 71.9901 10.7537C75.3847 15.0956 71.4501 32.8398 62.0287 46.8191" stroke="white" stroke-width="1.79" stroke-linecap="round" stroke-linejoin="round"/>
<path d="M62.0318 46.8132C62.0318 46.8132 62.649 49.8374 71.5982 47.992C75.5081 47.1835 73.1535 50.2571 69.1912 52.0963C65.9386 53.6084 58.6435 53.9942 58.5231 51.9112C58.2145 46.5262 62.362 48.1617 62.0627 46.8132C61.7911 45.5973 59.9334 44.4062 58.7113 41.4313C57.6405 38.8391 44.0223 18.9348 62.4885 21.8881C63.1674 21.7492 57.6745 4.29823 40.3932 4.04519C23.112 3.79214 23.6582 25.2919 23.6582 25.2919" stroke="white" stroke-width="1.79" stroke-linecap="round" stroke-linejoin="bevel"/>
<path d="M33.7068 48.6576C31.2998 51.3485 32.0096 51.8207 27.1955 52.8113C22.3259 53.8142 25.1896 55.601 27.0535 56.07C29.3186 56.6378 34.5585 57.4402 38.1012 52.4811C39.1813 50.969 38.095 48.5619 36.6138 47.9509C35.8978 47.6547 34.9412 47.2844 33.713 48.6607L33.7068 48.6576Z" stroke="white" stroke-width="1.79" stroke-linejoin="round"/>
<path d="M33.5502 48.6111C33.3034 47.028 34.0687 45.1487 34.8865 42.9453C36.1147 39.6434 38.9476 36.3414 36.6825 25.8585C34.9945 18.0511 23.6598 24.2322 23.6598 25.2907C23.6598 26.3492 24.1721 30.6602 23.4747 35.6749C22.5581 42.2232 27.6407 47.7594 33.4916 47.1947" stroke="white" stroke-width="1.79" stroke-linecap="round" stroke-linejoin="round"/>
<path d="M30.8543 25.1361C30.8018 25.4972 31.5178 26.4631 32.4466 26.5927C33.3755 26.7223 34.1686 25.9693 34.221 25.6052C34.2735 25.241 33.5576 24.846 32.6287 24.7164C31.6998 24.5868 30.9006 24.7781 30.8543 25.1361Z" fill="white" stroke="white" stroke-width="0.5975"/>
<path d="M59.1345 24.3978C59.1839 24.7589 58.471 25.7248 57.5422 25.8544C56.6133 25.984 55.8141 25.231 55.7678 24.8669C55.7215 24.5027 56.4312 24.1077 57.3601 23.9781C58.289 23.8485 59.0882 24.0398 59.1345 24.3978Z" fill="white" stroke="white" stroke-width="0.2975"/>
<path d="M62.453 21.8945C62.6073 24.7336 61.842 26.6623 61.7432 29.6834C61.6013 34.0716 63.8355 39.0955 60.4688 44.1256" stroke="white" stroke-width="1.79" stroke-linecap="round" stroke-linejoin="round"/>
</svg>
