<svg width="80" height="71" viewBox="0 0 80 71" fill="none" xmlns="http://www.w3.org/2000/svg">
<path d="M48.8707 0.359375C83.5587 23.944 72.3386 49.9529 72.3386 49.9529C72.3386 49.9529 82.2025 61.0878 78.2158 70.8257C78.2158 70.8257 74.147 64.0051 67.3244 64.0051C60.7485 64.0051 56.8851 70.8257 43.6511 70.8257C14.1827 70.8257 0.25 46.2139 0.25 46.2139C26.8003 63.6764 44.9252 51.3088 44.9252 51.3088C32.9652 44.3649 7.52462 11.1656 7.52462 11.1656C29.6773 30.0251 39.2535 34.9968 39.2535 34.9968C33.5406 30.2716 17.5118 7.18002 17.5118 7.18002C30.3349 20.1639 55.8166 38.2838 55.8166 38.2838C63.0501 18.2328 48.8707 0.359375 48.8707 0.359375Z" fill="url(#paint0_linear_159_11701)"/>
<defs>
<linearGradient id="paint0_linear_159_11701" x1="66" y1="2.14342e-06" x2="40" y2="71" gradientUnits="userSpaceOnUse">
<stop stop-color="#FB843A"/>
<stop offset="1" stop-color="#FD2D23"/>
</linearGradient>
</defs>
</svg>
