<svg width="79" height="47" viewBox="0 0 79 47" fill="none" xmlns="http://www.w3.org/2000/svg">
<path d="M22.5354 17.2014C22.5354 18.1477 22.6394 18.915 22.8214 19.4777C23.0294 20.0403 23.2894 20.6542 23.6534 21.3192C23.7834 21.5238 23.8354 21.7284 23.8354 21.9074C23.8354 22.1632 23.6794 22.4189 23.3414 22.6747L21.7035 23.7489C21.4695 23.9024 21.2355 23.9791 21.0275 23.9791C20.7675 23.9791 20.5075 23.8512 20.2475 23.621C19.8836 23.2374 19.5716 22.8282 19.3116 22.4189C19.0516 21.9841 18.7916 21.4982 18.5056 20.9099C16.4777 23.263 13.9298 24.4395 10.862 24.4395C8.67806 24.4395 6.93614 23.8256 5.6622 22.598C4.38825 21.3703 3.73828 19.7334 3.73828 17.6873C3.73828 15.5133 4.51825 13.7486 6.10418 12.4186C7.69011 11.0886 9.79601 10.4236 12.4739 10.4236C13.3579 10.4236 14.2678 10.5004 15.2298 10.6282C16.1917 10.7561 17.1797 10.9607 18.2196 11.1909V9.32385C18.2196 7.38004 17.8037 6.02449 16.9977 5.23163C16.1657 4.43876 14.7618 4.05511 12.7599 4.05511C11.8499 4.05511 10.914 4.15742 9.952 4.38761C8.99005 4.61779 8.05409 4.89913 7.14413 5.2572C6.72815 5.43624 6.41616 5.53854 6.23417 5.5897C6.05218 5.64085 5.92218 5.66643 5.81819 5.66643C5.4542 5.66643 5.27221 5.41066 5.27221 4.87356V3.62032C5.27221 3.21109 5.32421 2.90418 5.4542 2.72514C5.5842 2.54611 5.81819 2.36707 6.18217 2.18804C7.09213 1.72767 8.18408 1.34402 9.45803 1.0371C10.732 0.704611 12.0839 0.551153 13.5138 0.551153C16.6077 0.551153 18.8696 1.24171 20.3255 2.62284C21.7555 4.00396 22.4834 6.10122 22.4834 8.91462V17.2014H22.5354ZM11.9799 21.089C12.8379 21.089 13.7218 20.9355 14.6578 20.6286C15.5938 20.3217 16.4257 19.759 17.1277 18.9917C17.5437 18.5058 17.8557 17.9687 18.0116 17.3548C18.1676 16.741 18.2716 15.9993 18.2716 15.1297V14.0555C17.5177 13.8764 16.7117 13.723 15.8797 13.6207C15.0478 13.5184 14.2418 13.4672 13.4359 13.4672C11.6939 13.4672 10.42 13.7997 9.56202 14.4903C8.70406 15.1808 8.28808 16.1527 8.28808 17.4316C8.28808 18.6336 8.60006 19.5288 9.25004 20.1426C9.87401 20.7821 10.784 21.089 11.9799 21.089V21.089ZM32.857 23.8512C32.389 23.8512 32.077 23.7745 31.869 23.5955C31.661 23.442 31.479 23.0839 31.3231 22.598L25.2133 2.82745C25.0573 2.31592 24.9793 1.98343 24.9793 1.80439C24.9793 1.39517 25.1873 1.16499 25.6033 1.16499H28.1512C28.6452 1.16499 28.9832 1.24171 29.1652 1.42075C29.3731 1.57421 29.5291 1.93228 29.6851 2.41823L34.0529 19.3498L38.1088 2.41823C38.2387 1.9067 38.3947 1.57421 38.6027 1.42075C38.8107 1.26729 39.1747 1.16499 39.6427 1.16499H41.7226C42.2166 1.16499 42.5546 1.24171 42.7625 1.42075C42.9705 1.57421 43.1525 1.93228 43.2565 2.41823L47.3643 19.5544L51.8621 2.41823C52.0181 1.9067 52.2001 1.57421 52.3821 1.42075C52.5901 1.26729 52.9281 1.16499 53.3961 1.16499H55.814C56.2299 1.16499 56.4639 1.3696 56.4639 1.80439C56.4639 1.93228 56.4379 2.06016 56.4119 2.21362C56.3859 2.36707 56.3339 2.57169 56.2299 2.85303L49.9642 22.6236C49.8082 23.1351 49.6262 23.4676 49.4182 23.621C49.2103 23.7745 48.8723 23.8768 48.4303 23.8768H46.1944C45.7004 23.8768 45.3624 23.8001 45.1544 23.621C44.9464 23.442 44.7645 23.1095 44.6605 22.598L40.6306 6.10122L36.6268 22.5724C36.4968 23.0839 36.3408 23.4164 36.1328 23.5955C35.9248 23.7745 35.5609 23.8512 35.0929 23.8512H32.857ZM66.2655 24.5418C64.9136 24.5418 63.5616 24.3883 62.2617 24.0814C60.9617 23.7745 59.9478 23.442 59.2718 23.0584C58.8558 22.8282 58.5698 22.5724 58.4658 22.3422C58.3618 22.112 58.3099 21.8563 58.3099 21.6261V20.3217C58.3099 19.7846 58.5178 19.5288 58.9078 19.5288C59.0638 19.5288 59.2198 19.5544 59.3758 19.6055C59.5318 19.6567 59.7658 19.759 60.0258 19.8613C60.9097 20.245 61.8717 20.5519 62.8856 20.7565C63.9256 20.9611 64.9396 21.0634 65.9795 21.0634C67.6174 21.0634 68.8914 20.7821 69.7753 20.2194C70.6593 19.6567 71.1273 18.8383 71.1273 17.7896C71.1273 17.0735 70.8933 16.4852 70.4253 15.9993C69.9573 15.5133 69.0734 15.0785 67.7994 14.6693L64.0296 13.5184C62.1317 12.9301 60.7277 12.0605 59.8698 10.9096C59.0118 9.78422 58.5698 8.53098 58.5698 7.20101C58.5698 6.1268 58.8038 5.18047 59.2718 4.36203C59.7398 3.54359 60.3638 2.82745 61.1437 2.26477C61.9237 1.67651 62.8077 1.24171 63.8476 0.934798C64.8876 0.627882 65.9795 0.5 67.1235 0.5C67.6954 0.5 68.2934 0.525576 68.8654 0.602305C69.4634 0.679035 70.0093 0.78134 70.5553 0.883645C71.0753 1.01153 71.5693 1.13941 72.0372 1.29287C72.5052 1.44633 72.8692 1.59978 73.1292 1.75324C73.4932 1.95785 73.7532 2.16246 73.9092 2.39265C74.0651 2.59726 74.1431 2.8786 74.1431 3.23667V4.43876C74.1431 4.97586 73.9352 5.2572 73.5452 5.2572C73.3372 5.2572 72.9992 5.1549 72.5572 4.95029C71.0753 4.2853 69.4114 3.95281 67.5654 3.95281C66.0835 3.95281 64.9136 4.183 64.1076 4.66895C63.3016 5.1549 62.8856 5.89661 62.8856 6.94524C62.8856 7.66138 63.1456 8.27522 63.6656 8.76117C64.1856 9.24712 65.1475 9.73307 66.5255 10.1679L70.2173 11.3188C72.0892 11.9071 73.4412 12.7255 74.2471 13.7741C75.0531 14.8228 75.4431 16.0249 75.4431 17.3548C75.4431 18.4546 75.2091 19.4521 74.7671 20.3217C74.2991 21.1913 73.6752 21.9586 72.8692 22.5724C72.0632 23.2118 71.1013 23.6722 69.9833 24.0047C68.8134 24.3627 67.5914 24.5418 66.2655 24.5418V24.5418Z" fill="#202B3C"/>
<path fill-rule="evenodd" clip-rule="evenodd" d="M71.1771 36.9683C62.6235 43.1834 50.196 46.4827 39.5105 46.4827C24.5352 46.4827 11.0418 41.0349 0.850215 31.9809C0.0442512 31.2648 0.772219 30.2929 1.73418 30.8555C12.7577 37.1473 26.3551 40.9582 40.4204 40.9582C49.91 40.9582 60.3356 39.0144 69.9291 35.0245C71.3591 34.3851 72.581 35.9452 71.1771 36.9683V36.9683Z" fill="#FF9A00"/>
<path fill-rule="evenodd" clip-rule="evenodd" d="M74.7384 32.9808C73.6465 31.5997 67.5108 32.3158 64.7289 32.6483C63.8969 32.7506 63.7669 32.0345 64.5209 31.4974C69.4087 28.1213 77.4423 29.0932 78.3783 30.2186C79.3142 31.3695 78.1183 39.2726 73.5425 43.0579C72.8405 43.6462 72.1646 43.3393 72.4765 42.572C73.5165 40.0399 75.8304 34.3364 74.7384 32.9808V32.9808Z" fill="#FF9A00"/>
</svg>
