<svg width="115" height="77" viewBox="0 0 115 77" fill="none" xmlns="http://www.w3.org/2000/svg">
<path d="M0.394531 59.4023H102.32V66.2732H0.394531V59.4023Z" fill="white"/>
<path d="M24.8541 37.073C24.8541 39.9188 22.1158 42.2262 18.7386 42.2262C15.3613 42.2262 12.623 39.9188 12.623 37.073C12.623 34.2273 15.3613 31.9199 18.7386 31.9199C22.1158 31.9199 24.8541 34.2273 24.8541 37.073Z" fill="white"/>
<path d="M106.396 58.4365L111.269 56.0629C114.188 54.6279 115.189 51.4785 113.511 49.0067L106.396 38.6191V58.4365Z" fill="white"/>
<path d="M102.32 69.709H0.394531V71.4267C0.394531 74.2725 3.13278 76.5798 6.51005 76.5798H96.2043C99.5816 76.5798 102.32 74.2725 102.32 71.4267V69.709Z" fill="white"/>
<path d="M33.0095 31.9199C31.1213 31.9308 29.3466 32.6848 28.2129 33.9572C29.1724 35.9559 29.1724 38.1902 28.2129 40.1889C29.3466 41.4621 31.1213 42.2153 33.0095 42.2262C36.3868 42.2262 39.1251 39.9188 39.1251 37.073C39.1251 34.2273 36.3868 31.9199 33.0095 31.9199Z" fill="white"/>
<path d="M26.4641 18.1775L16.1819 3.16016L14.4201 4.01901C11.4977 5.44065 10.4944 8.58838 12.1776 11.0526L17.0638 18.1775H26.4641Z" fill="white"/>
<path d="M68.8121 14.2387C70.2186 13.5559 71.2448 12.4304 71.6658 11.1094C72.0859 9.78838 71.8659 8.38016 71.0547 7.19589C70.1359 5.81283 68.4966 4.87513 66.6313 4.66797C65.0337 6.38903 62.7135 7.52802 60.1485 7.84925C59.1352 9.87897 59.7792 12.2282 61.747 13.6784C63.7139 15.1285 66.5626 15.3542 68.8161 14.237L68.8121 14.2387Z" fill="white"/>
<path d="M64.5222 0.69631C65.2787 -1.67812 63.9389 -4.17165 61.3231 -5.26031C58.7073 -6.34814 55.544 -5.72832 53.7663 -3.77912C51.9885 -1.82993 52.0931 0.905152 54.0141 2.75538C55.9362 4.60477 59.1402 5.05265 61.6685 3.82559C63.0779 3.14622 64.1061 2.01898 64.5222 0.69631Z" fill="white"/>
<path d="M45.2979 18.1782H63.7818C61.0296 17.7311 58.6199 16.3439 57.1268 14.3452C55.6328 12.3465 55.1888 9.91591 55.9005 7.63206C50.4957 6.37481 47.3105 1.67628 48.7717 -2.88554C50.2329 -7.44653 55.791 -10.1564 61.2118 -8.95204C66.6325 -7.74679 69.8814 -3.07845 68.4819 1.49595C72.4405 2.42107 75.3529 5.25763 75.8695 8.69137C76.3871 12.1251 74.4073 15.4842 70.8489 17.2128C69.8884 17.6758 68.8432 18.0021 67.7563 18.1782H92.3896L68.674 -16.4335C66.974 -18.8884 63.2413 -19.728 60.316 -18.3122L30.3027 -3.71169L45.2979 18.1782Z" fill="white"/>
<path d="M19.7109 1.44378L31.1716 18.1789H40.5887L26.7641 -1.98828L19.7109 1.44378Z" fill="white"/>
<path d="M102.32 26.7664C102.32 23.9206 99.5816 21.6133 96.2043 21.6133H6.51005C3.13278 21.6133 0.394531 23.9206 0.394531 26.7664V55.9674H102.32V26.7664ZM33.0106 45.6612C30.3391 45.6595 27.776 44.7713 25.8759 43.1895C21.8805 46.5083 15.4534 46.4815 11.4968 43.1316C7.53926 39.7809 7.53926 34.3653 11.4968 31.0145C15.4534 27.6638 21.8805 27.6378 25.8759 30.9558C29.1566 28.2317 34.1981 27.6991 38.1756 29.6583C42.1521 31.6176 44.0751 35.5814 42.8657 39.3263C41.6574 43.0721 37.6172 45.6687 33.0106 45.6612V45.6612Z" fill="white"/>
</svg>
