<svg width="83" height="73" viewBox="0 0 83 73" fill="none" xmlns="http://www.w3.org/2000/svg">
<path d="M82.557 36.5305C82.557 31.1504 75.7081 26.0517 65.2076 22.8898C67.6308 12.3613 66.5538 3.98477 61.8084 1.30297C60.7146 0.673906 59.4356 0.375929 58.0389 0.375929V4.06754C58.813 4.06754 59.4356 4.21653 59.9573 4.49795C62.2459 5.78919 63.2387 10.7058 62.4646 17.0296C62.2795 18.5857 61.9766 20.2245 61.6064 21.8965C58.3082 21.1019 54.707 20.4894 50.9208 20.0921C48.6491 17.0296 46.2932 14.2484 43.9205 11.815C49.4063 6.799 54.5556 4.05099 58.0558 4.05099V0.359375C53.4281 0.359375 47.3701 3.60402 41.2448 9.23249C35.1195 3.63713 29.0615 0.425592 24.4339 0.425592V4.1172C27.9173 4.1172 33.0834 6.84867 38.5692 11.8315C36.2133 14.265 33.8575 17.0296 31.6194 20.0921C27.8163 20.4894 24.2151 21.1019 20.9169 21.9131C20.5299 20.2577 20.2438 18.6519 20.0419 17.1123C19.251 10.7886 20.227 5.87196 22.4987 4.56417C23.0035 4.26619 23.6598 4.13376 24.4339 4.13376V0.442147C23.0204 0.442147 21.7415 0.740124 20.6308 1.36919C15.9022 4.05099 14.8421 12.4109 17.2821 22.9063C6.81524 26.0848 0 31.1669 0 36.5305C0 41.9107 6.8489 47.0094 17.3494 50.1713C14.9262 60.6998 16.0032 69.0763 20.7486 71.7581C21.8424 72.3872 23.1213 72.6852 24.5349 72.6852C29.1625 72.6852 35.2205 69.4405 41.3458 63.812C47.4711 69.4074 53.5291 72.6189 58.1567 72.6189C59.5703 72.6189 60.8492 72.321 61.9598 71.6919C66.6884 69.0101 67.7486 60.6502 65.3085 50.1547C75.7417 46.9929 82.557 41.8941 82.557 36.5305ZM60.6472 25.4888C60.0246 27.6243 59.2505 29.826 58.3755 32.0278C57.6856 30.7034 56.962 29.3791 56.1711 28.0547C55.397 26.7304 54.5724 25.4392 53.7479 24.181C56.1374 24.5287 58.4428 24.9591 60.6472 25.4888ZM52.9401 43.1192C51.6276 45.354 50.2813 47.4729 48.8846 49.4429C46.3773 49.6581 43.8363 49.774 41.2785 49.774C38.7375 49.774 36.1965 49.6581 33.706 49.4595C32.3093 47.4895 30.9463 45.3871 29.6337 43.1688C28.3548 41.0002 27.1937 38.7985 26.1335 36.5802C27.1768 34.3619 28.3548 32.1437 29.6169 29.975C30.9294 27.7402 32.2756 25.6213 33.6723 23.6513C36.1797 23.4361 38.7207 23.3202 41.2785 23.3202C43.8195 23.3202 46.3605 23.4361 48.851 23.6347C50.2477 25.6047 51.6107 27.7071 52.9233 29.9254C54.2022 32.094 55.3633 34.2957 56.4235 36.514C55.3633 38.7323 54.2022 40.9505 52.9401 43.1192ZM58.3755 40.9671C59.2842 43.1854 60.0583 45.4037 60.6977 47.5557C58.4933 48.0855 56.1711 48.5324 53.7647 48.8801C54.5893 47.6054 55.4138 46.2976 56.1879 44.9567C56.962 43.6323 57.6856 42.2914 58.3755 40.9671ZM41.3122 58.6305C39.7472 57.0413 38.1822 55.27 36.634 53.3332C38.1485 53.3994 39.6967 53.4491 41.2617 53.4491C42.8435 53.4491 44.4085 53.4159 45.9398 53.3332C44.4253 55.27 42.8603 57.0413 41.3122 58.6305ZM28.7923 48.8801C26.4028 48.5324 24.0974 48.102 21.8929 47.5723C22.5155 45.4368 23.2896 43.235 24.1647 41.0333C24.8546 42.3577 25.5782 43.682 26.3691 45.0064C27.16 46.3307 27.9677 47.6219 28.7923 48.8801ZM41.228 14.4305C42.793 16.0198 44.358 17.7911 45.9061 19.7279C44.3916 19.6617 42.8435 19.612 41.2785 19.612C39.6967 19.612 38.1317 19.6451 36.6004 19.7279C38.1149 17.7911 39.6799 16.0198 41.228 14.4305ZM28.7755 24.181C27.9509 25.4557 27.1263 26.7635 26.3523 28.1044C25.5782 29.4287 24.8546 30.7531 24.1647 32.0774C23.256 29.8592 22.4819 27.6409 21.8424 25.4888C24.0469 24.9756 26.3691 24.5287 28.7755 24.181ZM13.5463 44.907C7.58932 42.4073 3.73576 39.1296 3.73576 36.5305C3.73576 33.9315 7.58932 30.6372 13.5463 28.1541C14.9935 27.5416 16.5753 26.9953 18.2076 26.4821C19.1668 29.7267 20.4289 33.1038 21.9939 36.5637C20.4457 40.007 19.2005 43.3675 18.2581 46.5956C16.5922 46.0824 15.0104 45.5195 13.5463 44.907ZM22.5997 68.5631C20.3111 67.2719 19.3183 62.3553 20.0923 56.0315C20.2775 54.4754 20.5804 52.8365 20.9506 51.1646C24.2488 51.9592 27.8499 52.5717 31.6362 52.969C33.9079 56.0315 36.2638 58.8126 38.6365 61.2461C33.1507 66.2621 28.0014 69.0101 24.5012 69.0101C23.744 68.9936 23.1045 68.8446 22.5997 68.5631ZM62.5151 55.9487C63.306 62.2725 62.33 67.1891 60.0583 68.4969C59.5534 68.7949 58.8972 68.9273 58.1231 68.9273C54.6397 68.9273 49.4736 66.1959 43.9878 61.213C46.3437 58.7795 48.6995 56.015 50.9376 52.9524C54.7407 52.5551 58.3418 51.9426 61.6401 51.1314C62.0271 52.8034 62.33 54.4092 62.5151 55.9487ZM68.9938 44.907C67.5466 45.5195 65.9648 46.0658 64.3325 46.579C63.3733 43.3344 62.1113 39.9573 60.5463 36.4974C62.0944 33.0541 63.3397 29.6936 64.282 26.4655C65.948 26.9787 67.5298 27.5416 69.0106 28.1541C74.9677 30.6538 78.8212 33.9315 78.8212 36.5305C78.8044 39.1296 74.9508 42.4239 68.9938 44.907Z" fill="#00C6F7"/>
<path d="M41.2606 44.0955C45.5078 44.0955 48.9509 40.7084 48.9509 36.5302C48.9509 32.352 45.5078 28.9648 41.2606 28.9648C37.0134 28.9648 33.5703 32.352 33.5703 36.5302C33.5703 40.7084 37.0134 44.0955 41.2606 44.0955Z" fill="#00C6F7"/>
</svg>
